<svg width="15" height="16" viewBox="0 0 15 16" fill="none" xmlns="http://www.w3.org/2000/svg">
  <g clip-path="url(#clip0_1803_12194)">
    <path
      d="M3.32432 9.56465L2.80219 11.5138L0.893818 11.5542C0.323496 10.4964 0 9.28609 0 7.99996C0 6.75628 0.302461 5.58347 0.838594 4.55078H0.839004L2.53799 4.86227L3.28225 6.55105C3.12647 7.00519 3.04157 7.49269 3.04157 7.99996C3.04163 8.55051 3.14136 9.078 3.32432 9.56465Z"
      fill="#FBBB00" />
    <path
      d="M14.8689 6.59888C14.955 7.05257 14.9999 7.52111 14.9999 7.99997C14.9999 8.53692 14.9435 9.06069 14.8359 9.56592C14.4708 11.2851 13.5168 12.7864 12.1953 13.8487L12.1949 13.8483L10.0549 13.7391L9.75202 11.8485C10.6289 11.3342 11.3142 10.5294 11.6752 9.56592H7.66479V6.59888H11.7338H14.8689Z"
      fill="#518EF8" />
    <path
      d="M12.1949 13.8483L12.1953 13.8487C10.91 14.8818 9.27731 15.5 7.49998 15.5C4.6438 15.5 2.16057 13.9036 0.893799 11.5542L3.3243 9.5647C3.95767 11.2551 5.5883 12.4584 7.49998 12.4584C8.32167 12.4584 9.09148 12.2362 9.75203 11.8485L12.1949 13.8483Z"
      fill="#28B446" />
    <path
      d="M12.2873 2.22664L9.85758 4.21578C9.17394 3.78846 8.36581 3.5416 7.50003 3.5416C5.54508 3.5416 3.88395 4.80011 3.28231 6.55109L0.839033 4.55082H0.838623C2.08685 2.14423 4.6014 0.5 7.50003 0.5C9.31981 0.5 10.9884 1.14822 12.2873 2.22664Z"
      fill="#F14336" />
  </g>
  <defs>
    <clipPath id="clip0_1803_12194">
      <rect width="15" height="15" fill="white" transform="translate(0 0.5)" />
    </clipPath>
  </defs>
</svg>